<svg aria-hidden="true" style="position: absolute; width: 0; height: 0; overflow: hidden;" version="1.1" xmlns="http://www.w3.org/2000/svg" xmlns:xlink="http://www.w3.org/1999/xlink">
<defs>
<symbol id="burgermenu" viewBox="0 0 32 32"><path d="M0 8.889V5.333h32v3.556H0zm0 8.889h32v-3.556H0v3.556zm0 8.889h32v-3.556H0v3.556z"/></symbol>
<symbol id="burgerclose" viewBox="0 0 32 32"><path d="M31.439 3.166L28.273 0 15.72 12.553 3.167 0 .001 3.166l12.553 12.553L.001 28.272l3.166 3.166L15.72 18.885l12.553 12.553 3.166-3.166-12.553-12.553L31.439 3.166z"/></symbol><symbol id="close" viewBox="0 0 32 32"><path d="M32 3.223L28.777 0 16 12.777 3.223 0 0 3.223 12.777 16 0 28.777 3.223 32 16 19.223 28.777 32 32 28.777 19.223 16 32 3.223z"/></symbol>

<symbol id="share" viewBox="0 0 18 20">
<path d="M15 14c-0.788 0-1.5 0.31-2.034 0.807l-7.056-4.107c0.050-0.23 0.090-0.46 0.090-0.7s-0.040-0.47-0.090-0.7l7.050-4.11c0.54 0.5 1.25 0.81 2.040 0.81 1.66 0 3-1.34 3-3s-1.34-3-3-3c-1.66 0-3 1.34-3 3 0 0.24 0.040 0.47 0.090 0.7l-7.050 4.11c-0.54-0.5-1.25-0.81-2.040-0.81-1.66 0-3 1.34-3 3s1.34 3 3 3c0.79 0 1.5-0.31 2.040-0.81l7.048 4.118c-0.056 0.226-0.086 0.459-0.088 0.692 0 0.593 0.176 1.173 0.506 1.667s0.798 0.878 1.346 1.105c0.548 0.227 1.151 0.287 1.733 0.171s1.117-0.402 1.536-0.821c0.42-0.419 0.705-0.954 0.821-1.536s0.056-1.185-0.171-1.733c-0.227-0.548-0.612-1.017-1.105-1.346s-1.073-0.506-1.667-0.506z"></path>
</symbol>


<symbol id="arrow" viewBox="0 0 24 24">
<path d="M7.406 8.578l4.594 4.594 4.594-4.594 1.406 1.406-6 6-6-6z"></path>
</symbol>
<symbol id="arrowright" viewBox="0 0 32 32">
<path d="M19.952 5.551c-0.469 0.469-0.469 1.228 0 1.697l7.551 7.551h-25.903c-0.663 0-1.2 0.537-1.2 1.2s0.537 1.2 1.2 1.2h25.903l-7.551 7.552c-0.469 0.469-0.469 1.228 0 1.697s1.228 0.469 1.697 0l9.6-9.6c0.469-0.469 0.469-1.228 0-1.697l-9.6-9.6c-0.469-0.469-1.228-0.469-1.697 0z"></path>
</symbol>
<symbol id="cart" viewBox="0 0 32 32">
<path fill="none" stroke-linejoin="round" stroke-linecap="round" stroke-miterlimit="4" stroke-width="2.4" d="M1.333 3.333h2.206c0.638 0 0.957 0 1.216 0.116 0.229 0.102 0.424 0.266 0.563 0.474 0.158 0.236 0.213 0.55 0.322 1.178l0.504 2.899M6.145 8l1.177 6.77c0.239 1.374 0.358 2.061 0.712 2.555 0.312 0.436 0.747 0.767 1.25 0.952 0.571 0.21 1.265 0.143 2.653 0.008l12.882-1.247c1.354-0.131 2.032-0.197 2.544-0.501 0.458-0.272 0.823-0.675 1.050-1.156 0.254-0.539 0.254-1.22 0.254-2.581v0c0-1.446 0-2.169-0.277-2.729-0.247-0.499-0.644-0.908-1.136-1.17-0.551-0.294-1.274-0.315-2.719-0.358l-18.39-0.544z"></path>
<path fill="none" stroke-linejoin="miter" stroke-linecap="butt" stroke-miterlimit="4" stroke-width="2.4" d="M14 25.333c0 1.473-1.194 2.667-2.667 2.667s-2.667-1.194-2.667-2.667c0-1.473 1.194-2.667 2.667-2.667s2.667 1.194 2.667 2.667z"></path>
<path fill="none" stroke-linejoin="miter" stroke-linecap="butt" stroke-miterlimit="4" stroke-width="2.4" d="M26.667 25.333c0 1.473-1.194 2.667-2.667 2.667s-2.667-1.194-2.667-2.667c0-1.473 1.194-2.667 2.667-2.667s2.667 1.194 2.667 2.667z"></path>
</symbol>
<symbol id="heart" viewBox="0 0 32 32">
<path  stroke-linejoin="miter" stroke-linecap="butt" stroke-miterlimit="4" stroke-width="2.4" d="M15.999 28.072c-26.666-14.739-7.999-30.739 0-20.621 8.001-10.117 26.667 5.883 0 20.621z"></path>
</symbol>
<symbol id="phone" viewBox="0 0 32 32">
<path d="M22.861 22.134l-1.031 1.547c-0.206 0.309-0.478 0.572-0.837 0.667-1.175 0.31-4.294 0.451-9.043-4.298s-4.609-7.868-4.298-9.043c0.095-0.359 0.358-0.631 0.667-0.837l1.546-1.031c1.151-0.768 1.463-2.323 0.695-3.475l-2.921-4.381c-0.67-1.005-1.962-1.389-3.072-0.913l-1.318 0.565c-1.001 0.429-1.817 1.199-2.304 2.173-0.407 0.814-0.722 1.671-0.765 2.579-0.135 2.864 0.493 9.92 8.353 17.779s14.915 8.487 17.779 8.353c0.909-0.043 1.766-0.358 2.579-0.765 0.974-0.487 1.744-1.304 2.173-2.304l0.565-1.318c0.476-1.11 0.092-2.402-0.913-3.072l-4.381-2.921c-1.151-0.768-2.707-0.457-3.475 0.695z"></path>
</symbol>
<symbol id="search" viewBox="0 0 32 32">
<path d="M31.008 27.231l-7.58-6.447c-0.784-0.705-1.622-1.029-2.299-0.998 1.789-2.096 2.87-4.815 2.87-7.787 0-6.627-5.373-12-12-12s-12 5.373-12 12 5.373 12 12 12c2.972 0 5.691-1.081 7.787-2.87-0.031 0.677 0.293 1.515 0.998 2.299l6.447 7.58c1.104 1.226 2.907 1.33 4.007 0.23s0.997-2.903-0.23-4.007zM12 20c-4.418 0-8-3.582-8-8s3.582-8 8-8 8 3.582 8 8-3.582 8-8 8z"></path>
</symbol>
<symbol id="send" viewBox="0 0 32 32">
<path d="M31.613 0.387c-0.18-0.179-0.407-0.303-0.655-0.357s-0.506-0.037-0.745 0.051l-29.333 10.667c-0.253 0.096-0.471 0.267-0.624 0.489s-0.236 0.487-0.236 0.757c0 0.271 0.082 0.535 0.236 0.757s0.372 0.393 0.624 0.489l11.453 4.573 8.453-8.48 1.88 1.88-8.493 8.493 4.587 11.453c0.099 0.248 0.27 0.461 0.491 0.611s0.482 0.23 0.749 0.229c0.27-0.006 0.531-0.092 0.75-0.25s0.385-0.377 0.477-0.63l10.667-29.333c0.091-0.236 0.113-0.493 0.063-0.741s-0.169-0.477-0.343-0.659z"></path>
</symbol>
<symbol id="location" viewBox="0 0 20 20">
<path d="M10 20s-7-9.13-7-13c0-3.866 3.134-7 7-7s7 3.134 7 7v0c0 3.87-7 13-7 13zM10 9c1.105 0 2-0.895 2-2s-0.895-2-2-2v0c-1.105 0-2 0.895-2 2s0.895 2 2 2v0z"></path>
</symbol>
</defs>
</svg>
